{
	"asset":{
		"version":"2.0",
		"generator":"Created using the official Cinema 4D glTF Exporter 1.000x284978"
	},
	"images":[{
		"uri":"data:image/jpeg;base64,"
	},
	{
		"uri":"data:image/jpeg;base64,"
	},
	{
		"uri":"data:image/jpeg;base64,"
	}],
	"scenes":[{
		"nodes":[0,
		3,
		7]
	}],
	"nodes":[{
		"name":"hand",
		"children":[1]
	},
	{
		"name":"hand",
		"translation":[-23.21648406982422,
		75.01228332519531,
		17.079673767089845],
		"rotation":[0.0,
		-0.1724497526884079,
		0.0,
		-0.9850183129310608],
		"scale":[1.0,
		1.0,
		1.0],
		"children":[2]
	},
	{
		"name":"hand-3DXY_Material_1",
		"mesh":0
	},
	{
		"name":"part",
		"children":[4,
		5]
	},
	{
		"name":"sword",
		"translation":[20.489309310913087,
		74.76276397705078,
		23.90890121459961],
		"rotation":[0.0347866415977478,
		0.12238205969333649,
		0.0320165790617466,
		0.991356372833252],
		"scale":[0.5685978531837463,
		0.5685978531837463,
		0.5685978531837463],
		"mesh":1
	},
	{
		"name":"arm",
		"translation":[7.2585039138793949,
		36.31904983520508,
		-1.0328598022460938],
		"rotation":[0.0,
		0.0,
		0.0,
		-1.0],
		"scale":[1.0,
		1.0,
		1.0],
		"children":[6]
	},
	{
		"name":"arm-3DXY_Material_1",
		"mesh":2
	},
	{
		"name":"body",
		"translation":[0.0,
		79.26630401611328,
		4.853661418093014e-15],
		"rotation":[0.7071067690849304,
		0.0,
		0.0,
		-0.7071067690849304],
		"scale":[1.0,
		1.0,
		1.0],
		"children":[8]
	},
	{
		"name":"body",
		"translation":[14.517007827758789,
		2.0657196044921877,
		-6.628204345703125],
		"rotation":[0.0,
		0.0,
		0.0,
		-1.0],
		"scale":[1.0,
		1.0,
		1.0],
		"children":[9,
		10]
	},
	{
		"name":"body-3DXY_Material_2",
		"mesh":3
	},
	{
		"name":"body-3DXY_Material_1",
		"mesh":4
	}],
	"materials":[{
		"pbrMetallicRoughness":{
			"baseColorTexture":{
				"index":0
			},
			"baseColorFactor":[0.5879999995231628,
			0.5879999995231628,
			0.5879999995231628,
			1.0],
			"metallicFactor":1.0,
			"roughnessFactor":1.0
		},
		"emissiveFactor":[0.0,
		0.0,
		0.0],
		"alphaMode":"OPAQUE",
		"doubleSided":true,
		"name":"3DXY_Material_1"
	},
	{
		"pbrMetallicRoughness":{
			"baseColorTexture":{
				"index":1
			},
			"baseColorFactor":[0.5879999995231628,
			0.5879999995231628,
			0.5879999995231628,
			1.0],
			"metallicFactor":1.0,
			"roughnessFactor":1.0
		},
		"emissiveFactor":[0.0,
		0.0,
		0.0],
		"alphaMode":"OPAQUE",
		"doubleSided":true,
		"name":"3DXY_Material_3"
	},
	{
		"pbrMetallicRoughness":{
			"baseColorTexture":{
				"index":2
			},
			"baseColorFactor":[0.5879999995231628,
			0.5879999995231628,
			0.5879999995231628,
			1.0],
			"metallicFactor":1.0,
			"roughnessFactor":1.0
		},
		"emissiveFactor":[0.0,
		0.0,
		0.0],
		"alphaMode":"OPAQUE",
		"doubleSided":true,
		"name":"3DXY_Material_2"
	}],
	"meshes":[{
		"name":"hand-3DXY_Material_1",
		"primitives":[{
			"attributes":{
				"POSITION":1,
				"NORMAL":2,
				"TEXCOORD_0":3
			},
			"indices":0,
			"material":0
		}]
	},
	{
		"name":"sword",
		"primitives":[{
			"attributes":{
				"POSITION":5,
				"NORMAL":6,
				"TEXCOORD_0":7
			},
			"indices":4,
			"material":1
		}]
	},
	{
		"name":"arm-3DXY_Material_1",
		"primitives":[{
			"attributes":{
				"POSITION":13,
				"NORMAL":14,
				"TEXCOORD_0":15
			},
			"indices":12,
			"material":0
		}]
	},
	{
		"name":"body-3DXY_Material_2",
		"primitives":[{
			"attributes":{
				"POSITION":17,
				"NORMAL":18,
				"TEXCOORD_0":19
			},
			"indices":16,
			"material":2
		}]
	},
	{
		"name":"body-3DXY_Material_1",
		"primitives":[{
			"attributes":{
				"POSITION":21,
				"NORMAL":22,
				"TEXCOORD_0":23
			},
			"indices":20,
			"material":0
		}]
	}],
	"accessors":[{
		"bufferView":0,
		"type":"SCALAR",
		"componentType":5123,
		"count":237,
		"byteOffset":0,
		"min":[0],
		"max":[106]
	},
	{
		"bufferView":1,
		"type":"VEC3",
		"componentType":5126,
		"count":107,
		"byteOffset":0,
		"min":[-9.037832260131836,
		-9.585166931152344,
		-3.6900599002838136],
		"max":[0.6385248899459839,
		2.0516464710235597,
		5.840774059295654]
	},
	{
		"bufferView":1,
		"type":"VEC3",
		"componentType":5126,
		"count":107,
		"byteOffset":12,
		"min":[-0.9782813191413879,
		-0.9356563091278076,
		-0.9779688119888306],
		"max":[0.9891563057899475,
		0.8154375553131104,
		0.9741563200950623]
	},
	{
		"bufferView":1,
		"type":"VEC2",
		"componentType":5126,
		"count":107,
		"byteOffset":24,
		"min":[0.8260130286216736,
		-0.25650298595428469],
		"max":[0.987339973449707,
		-0.07547199726104737]
	},
	{
		"bufferView":2,
		"type":"SCALAR",
		"componentType":5123,
		"count":984,
		"byteOffset":0,
		"min":[0],
		"max":[329]
	},
	{
		"bufferView":3,
		"type":"VEC3",
		"componentType":5126,
		"count":330,
		"byteOffset":0,
		"min":[-96.65843963623047,
		-6.464664459228516,
		-62.42682647705078],
		"max":[-60.25389862060547,
		-0.036604590713977817,
		150.2375946044922]
	},
	{
		"bufferView":3,
		"type":"VEC3",
		"componentType":5126,
		"count":330,
		"byteOffset":12,
		"min":[-0.9998393654823303,
		-0.9999799728393555,
		-1.0],
		"max":[0.9998393654823303,
		1.0,
		1.0]
	},
	{
		"bufferView":3,
		"type":"VEC2",
		"componentType":5126,
		"count":330,
		"byteOffset":24,
		"min":[0.013039999641478062,
		-0.9952229857444763],
		"max":[1.0015180110931397,
		-0.003059983253479004]
	},
	{
		"bufferView":4,
		"type":"SCALAR",
		"componentType":5126,
		"count":4,
		"byteOffset":0,
		"min":[0.0],
		"max":[3.0]
	},
	{
		"bufferView":4,
		"type":"VEC3",
		"componentType":5126,
		"count":4,
		"byteOffset":16,
		"min":[20.489309310913087,
		74.76276397705078,
		20.28683853149414],
		"max":[21.79391860961914,
		75.11425018310547,
		23.90890121459961]
	},
	{
		"bufferView":5,
		"type":"SCALAR",
		"componentType":5126,
		"count":4,
		"byteOffset":0,
		"min":[0.0],
		"max":[3.0]
	},
	{
		"bufferView":5,
		"type":"VEC4",
		"componentType":5126,
		"count":4,
		"byteOffset":16,
		"min":[-0.0347866415977478,
		-0.19828703999519349,
		-0.03459791839122772,
		-0.991356372833252],
		"max":[-0.032220423221588138,
		-0.12238205969333649,
		-0.0320165790617466,
		-0.9790031313896179]
	},
	{
		"bufferView":6,
		"type":"SCALAR",
		"componentType":5123,
		"count":282,
		"byteOffset":0,
		"min":[0],
		"max":[112]
	},
	{
		"bufferView":7,
		"type":"VEC3",
		"componentType":5126,
		"count":113,
		"byteOffset":0,
		"min":[-38.28193664550781,
		8.01632308959961,
		-1.7814311981201172],
		"max":[-5.172565460205078,
		72.72415161132813,
		23.958152770996095]
	},
	{
		"bufferView":7,
		"type":"VEC3",
		"componentType":5126,
		"count":113,
		"byteOffset":12,
		"min":[-0.9800313115119934,
		-0.9901875257492065,
		-0.9871875643730164],
		"max":[0.9055625200271606,
		0.9944688081741333,
		0.9710937738418579]
	},
	{
		"bufferView":7,
		"type":"VEC2",
		"componentType":5126,
		"count":113,
		"byteOffset":24,
		"min":[0.13946199417114259,
		-0.9006450176239014],
		"max":[0.973160982131958,
		-0.0048220157623291019]
	},
	{
		"bufferView":8,
		"type":"SCALAR",
		"componentType":5123,
		"count":96,
		"byteOffset":0,
		"min":[0],
		"max":[24]
	},
	{
		"bufferView":9,
		"type":"VEC3",
		"componentType":5126,
		"count":25,
		"byteOffset":0,
		"min":[-15.859848022460938,
		-38.03158950805664,
		-70.73880767822266],
		"max":[15.132193565368653,
		-20.28185272216797,
		-2.4878602027893068]
	},
	{
		"bufferView":9,
		"type":"VEC3",
		"componentType":5126,
		"count":25,
		"byteOffset":12,
		"min":[-0.6141250133514404,
		-0.991187572479248,
		0.12959375977516175],
		"max":[0.6141563057899475,
		-0.756937563419342,
		0.25584375858306887]
	},
	{
		"bufferView":9,
		"type":"VEC2",
		"componentType":5126,
		"count":25,
		"byteOffset":24,
		"min":[0.14155998826026917,
		-0.388187050819397],
		"max":[0.2717229723930359,
		-0.013113975524902344]
	},
	{
		"bufferView":10,
		"type":"SCALAR",
		"componentType":5123,
		"count":3087,
		"byteOffset":0,
		"min":[0],
		"max":[1030]
	},
	{
		"bufferView":11,
		"type":"VEC3",
		"componentType":5126,
		"count":1031,
		"byteOffset":0,
		"min":[-33.145912170410159,
		-33.90401840209961,
		-72.63810729980469],
		"max":[45.83115005493164,
		33.900150299072269,
		68.0321044921875]
	},
	{
		"bufferView":11,
		"type":"VEC3",
		"componentType":5126,
		"count":1031,
		"byteOffset":12,
		"min":[-0.9941563010215759,
		-0.9999063014984131,
		-0.9999688267707825],
		"max":[0.9999688267707825,
		0.9998750686645508,
		0.9996563196182251]
	},
	{
		"bufferView":11,
		"type":"VEC2",
		"componentType":5126,
		"count":1031,
		"byteOffset":24,
		"min":[0.00903099961578846,
		-0.999396026134491],
		"max":[0.9951189756393433,
		-0.0048220157623291019]
	}],
	"bufferViews":[{
		"target":34963,
		"buffer":0,
		"byteOffset":0,
		"byteLength":474
	},
	{
		"target":34962,
		"buffer":0,
		"byteOffset":476,
		"byteLength":3424,
		"byteStride":32
	},
	{
		"target":34963,
		"buffer":1,
		"byteOffset":0,
		"byteLength":1968
	},
	{
		"target":34962,
		"buffer":1,
		"byteOffset":1968,
		"byteLength":10560,
		"byteStride":32
	},
	{
		"buffer":2,
		"byteOffset":0,
		"byteLength":64
	},
	{
		"buffer":2,
		"byteOffset":64,
		"byteLength":80
	},
	{
		"target":34963,
		"buffer":3,
		"byteOffset":0,
		"byteLength":564
	},
	{
		"target":34962,
		"buffer":3,
		"byteOffset":564,
		"byteLength":3616,
		"byteStride":32
	},
	{
		"target":34963,
		"buffer":4,
		"byteOffset":0,
		"byteLength":192
	},
	{
		"target":34962,
		"buffer":4,
		"byteOffset":192,
		"byteLength":800,
		"byteStride":32
	},
	{
		"target":34963,
		"buffer":5,
		"byteOffset":0,
		"byteLength":6174
	},
	{
		"target":34962,
		"buffer":5,
		"byteOffset":6176,
		"byteLength":32992,
		"byteStride":32
	}],
	"animations":[{
		"samplers":[{
			"interpolation":"LINEAR",
			"input":8,
			"output":9
		},
		{
			"interpolation":"LINEAR",
			"input":10,
			"output":11
		}],
		"channels":[{
			"target":{
				"node":4,
				"path":"translation"
			},
			"sampler":0
		},
		{
			"target":{
				"node":4,
				"path":"rotation"
			},
			"sampler":1
		}]
	}],
	"buffers":[{
		"uri":"data:application/octet-stream;base64,",
		"byteLength":3900
	},
	{
		"uri":"data:application/octet-stream;base64,",
		"byteLength":12528
	},
	{
		"uri":"data:application/octet-stream;base64,",
		"byteLength":144
	},
	{
		"uri":"data:application/octet-stream;base64,",
		"byteLength":4180
	},
	{
		"uri":"data:application/octet-stream;base64,",
		"byteLength":992
	},
	{
		"uri":"data:application/octet-stream;base64,",
		"byteLength":39168
	}],
	"samplers":[{
		"magFilter":9729,
		"minFilter":9729,
		"wrapS":10497,
		"wrapT":10497
	},
	{
		"magFilter":9729,
		"minFilter":9729,
		"wrapS":10497,
		"wrapT":10497
	},
	{
		"magFilter":9729,
		"minFilter":9729,
		"wrapS":10497,
		"wrapT":10497
	}],
	"textures":[{
		"sampler":0,
		"source":0
	},
	{
		"sampler":1,
		"source":1
	},
	{
		"sampler":2,
		"source":2
	}]
}