{
	"asset":{
		"version":"2.0",
		"generator":"Created using the official Cinema 4D glTF Exporter 1.000x284978"
	},
	"scenes":[{
		"nodes":[0,
		5]
	}],
	"nodes":[{
		"name":"text",
		"translation":[-133.56407165527345,
		-37.64228820800781,
		59.523929595947269],
		"rotation":[0.0,
		0.0,
		0.0,
		-1.0],
		"scale":[1.0,
		1.0,
		1.0],
		"children":[1]
	},
	{
		"name":"1",
		"children":[2]
	},
	{
		"name":"曹操",
		"children":[3,
		4]
	},
	{
		"name":"曹",
		"mesh":0
	},
	{
		"name":"操",
		"translation":[144.90699768066407,
		0.0,
		0.0],
		"rotation":[0.0,
		0.0,
		0.0,
		-1.0],
		"scale":[1.0,
		1.0,
		1.0],
		"mesh":1
	},
	{
		"name":"g",
		"mesh":2
	}],
	"meshes":[{
		"name":"曹",
		"primitives":[{
			"attributes":{
				"NORMAL":2,
				"POSITION":1,
				"TEXCOORD_0":3
			},
			"indices":0,
			"material":0
		}]
	},
	{
		"name":"操",
		"primitives":[{
			"attributes":{
				"NORMAL":6,
				"POSITION":5,
				"TEXCOORD_0":7
			},
			"indices":4,
			"material":0
		}]
	},
	{
		"name":"g",
		"primitives":[{
			"attributes":{
				"NORMAL":10,
				"POSITION":9,
				"TEXCOORD_0":11
			},
			"indices":8,
			"material":1
		}]
	}],
	"accessors":[{
		"bufferView":0,
		"type":"SCALAR",
		"componentType":5123,
		"count":1596,
		"byteOffset":0,
		"min":[0],
		"max":[635]
	},
	{
		"bufferView":1,
		"type":"VEC3",
		"componentType":5126,
		"count":636,
		"byteOffset":0,
		"min":[12.954000473022461,
		-16.128999710083009,
		-20.0],
		"max":[126.49199676513672,
		97.53600311279297,
		0.0]
	},
	{
		"bufferView":1,
		"type":"VEC3",
		"componentType":5126,
		"count":636,
		"byteOffset":12,
		"min":[-0.9999982118606567,
		-1.0,
		-1.0],
		"max":[0.9997395277023315,
		1.0,
		1.0]
	},
	{
		"bufferView":1,
		"type":"VEC2",
		"componentType":5126,
		"count":636,
		"byteOffset":24,
		"min":[0.0,
		0.0],
		"max":[1.0,
		1.0]
	},
	{
		"bufferView":2,
		"type":"SCALAR",
		"componentType":5123,
		"count":1992,
		"byteOffset":0,
		"min":[0],
		"max":[823]
	},
	{
		"bufferView":3,
		"type":"VEC3",
		"componentType":5126,
		"count":824,
		"byteOffset":0,
		"min":[0.12700000405311585,
		-16.763999938964845,
		-20.0],
		"max":[120.0567626953125,
		97.53600311279297,
		0.0]
	},
	{
		"bufferView":3,
		"type":"VEC3",
		"componentType":5126,
		"count":824,
		"byteOffset":12,
		"min":[-0.9999947547912598,
		-1.0,
		-1.0],
		"max":[0.9998347759246826,
		1.0,
		1.0]
	},
	{
		"bufferView":3,
		"type":"VEC2",
		"componentType":5126,
		"count":824,
		"byteOffset":24,
		"min":[0.0,
		0.0],
		"max":[1.0,
		1.0]
	},
	{
		"bufferView":4,
		"type":"SCALAR",
		"componentType":5123,
		"count":1764,
		"byteOffset":0,
		"min":[0],
		"max":[599]
	},
	{
		"bufferView":5,
		"type":"VEC3",
		"componentType":5126,
		"count":600,
		"byteOffset":0,
		"min":[-200.0,
		-200.0,
		-40.0],
		"max":[200.0,
		200.0,
		40.0]
	},
	{
		"bufferView":5,
		"type":"VEC3",
		"componentType":5126,
		"count":600,
		"byteOffset":12,
		"min":[-1.0,
		-1.0,
		-1.0],
		"max":[1.0,
		1.0,
		1.0]
	},
	{
		"bufferView":5,
		"type":"VEC2",
		"componentType":5126,
		"count":600,
		"byteOffset":24,
		"min":[-0.10000000149011612,
		-0.09999999403953552],
		"max":[1.100000023841858,
		1.0998809337615967]
	}],
	"bufferViews":[{
		"buffer":0,
		"byteOffset":0,
		"byteLength":3192,
		"target":34963
	},
	{
		"buffer":0,
		"byteOffset":3192,
		"byteLength":20352,
		"target":34962,
		"byteStride":32
	},
	{
		"buffer":1,
		"byteOffset":0,
		"byteLength":3984,
		"target":34963
	},
	{
		"buffer":1,
		"byteOffset":3984,
		"byteLength":26368,
		"target":34962,
		"byteStride":32
	},
	{
		"buffer":2,
		"byteOffset":0,
		"byteLength":3528,
		"target":34963
	},
	{
		"buffer":2,
		"byteOffset":3528,
		"byteLength":19200,
		"target":34962,
		"byteStride":32
	}],
	"buffers":[{
		"uri":"data:application/octet-stream;base64,",
		"byteLength":23544
	},
	{
		"uri":"data:application/octet-stream;base64,",
		"byteLength":30352
	},
	{
		"uri":"data:application/octet-stream;base64,",
		"byteLength":22728
	}],
	"materials":[{
		"pbrMetallicRoughness":{
			"baseColorFactor":[0.74,
			0.6882,
			0.7097833333333335,
			1.0],
			"metallicFactor":0.64,
			"roughnessFactor":0.0
		},
		"emissiveFactor":[0.0,
		0.0,
		0.0],
		"alphaMode":"OPAQUE",
		"doubleSided":true,
		"name":"材质.1"
	},
	{
		"pbrMetallicRoughness":{
			"baseColorFactor":[0.26,
			0.012999999999999984,
			0.012999999999999984,
			0.5],
			"metallicFactor":0.0,
			"roughnessFactor":0.5
		},
		"emissiveFactor":[0.0,
		0.0,
		0.0],
		"alphaMode":"BLEND",
		"doubleSided":true,
		"name":"材质"
	}]
}