{
	"asset":{
		"version":"2.0",
		"generator":"Created using the official Cinema 4D glTF Exporter 1.000x284978"
	},
	"scenes":[{
		"nodes":[0]
	}],
	"nodes":[{
		"name":"bool",
		"children":[1,
		2]
	},
	{
		"name":"g",
		"mesh":0
	},
	{
		"name":"text",
		"translation":[-125.50431823730469,
		-37.64228820800781,
		40.16933822631836],
		"rotation":[0.0,
		0.0,
		0.0,
		-1.0],
		"scale":[1.0,
		1.0,
		1.0],
		"children":[3]
	},
	{
		"name":"1",
		"children":[4]
	},
	{
		"name":"关羽",
		"children":[5,
		6]
	},
	{
		"name":"关",
		"mesh":1
	},
	{
		"name":"羽",
		"translation":[127.0,
		0.0,
		0.0],
		"rotation":[0.0,
		0.0,
		0.0,
		-1.0],
		"scale":[1.0,
		1.0,
		1.0],
		"mesh":2
	}],
	"meshes":[{
		"name":"g",
		"primitives":[{
			"attributes":{
				"NORMAL":2,
				"POSITION":1,
				"TEXCOORD_0":3
			},
			"indices":0,
			"material":0
		}]
	},
	{
		"name":"关",
		"primitives":[{
			"attributes":{
				"NORMAL":6,
				"POSITION":5,
				"TEXCOORD_0":7
			},
			"indices":4,
			"material":1
		}]
	},
	{
		"name":"羽",
		"primitives":[{
			"attributes":{
				"NORMAL":10,
				"POSITION":9,
				"TEXCOORD_0":11
			},
			"indices":8,
			"material":1
		}]
	}],
	"accessors":[{
		"bufferView":0,
		"type":"SCALAR",
		"componentType":5123,
		"count":2490,
		"byteOffset":0,
		"min":[0],
		"max":[1001]
	},
	{
		"bufferView":1,
		"type":"VEC3",
		"componentType":5126,
		"count":1002,
		"byteOffset":0,
		"min":[-200.0,
		-100.0,
		-40.0],
		"max":[200.0,
		100.0,
		40.0]
	},
	{
		"bufferView":1,
		"type":"VEC3",
		"componentType":5126,
		"count":1002,
		"byteOffset":12,
		"min":[-1.0,
		-1.0,
		-1.0],
		"max":[1.0,
		1.0,
		1.0]
	},
	{
		"bufferView":1,
		"type":"VEC2",
		"componentType":5126,
		"count":1002,
		"byteOffset":24,
		"min":[-0.09979890286922455,
		-0.19858968257904054],
		"max":[1.100000023841858,
		1.198883056640625]
	},
	{
		"bufferView":2,
		"type":"SCALAR",
		"componentType":5123,
		"count":492,
		"byteOffset":0,
		"min":[0],
		"max":[233]
	},
	{
		"bufferView":3,
		"type":"VEC3",
		"componentType":5126,
		"count":234,
		"byteOffset":0,
		"min":[-0.8889999985694885,
		-16.763999938964845,
		-20.0],
		"max":[117.3479995727539,
		94.99600219726563,
		-0.1693398356437683]
	},
	{
		"bufferView":3,
		"type":"VEC3",
		"componentType":5126,
		"count":234,
		"byteOffset":12,
		"min":[-0.989533007144928,
		-1.0,
		-1.7152261477804132e-7],
		"max":[0.9907665848731995,
		1.0,
		1.0]
	},
	{
		"bufferView":3,
		"type":"VEC2",
		"componentType":5126,
		"count":234,
		"byteOffset":24,
		"min":[0.0,
		0.0],
		"max":[1.0,
		1.0]
	},
	{
		"bufferView":4,
		"type":"SCALAR",
		"componentType":5123,
		"count":1050,
		"byteOffset":0,
		"min":[0],
		"max":[432]
	},
	{
		"bufferView":5,
		"type":"VEC3",
		"componentType":5126,
		"count":433,
		"byteOffset":0,
		"min":[1.3969999551773072,
		-15.748000144958496,
		-20.0],
		"max":[122.70130157470703,
		92.83699798583985,
		-0.1693398356437683]
	},
	{
		"bufferView":5,
		"type":"VEC3",
		"componentType":5126,
		"count":433,
		"byteOffset":12,
		"min":[-0.9999993443489075,
		-1.0,
		-1.0],
		"max":[0.9996804594993591,
		1.0,
		1.0]
	},
	{
		"bufferView":5,
		"type":"VEC2",
		"componentType":5126,
		"count":433,
		"byteOffset":24,
		"min":[0.0,
		0.0],
		"max":[1.0,
		1.0]
	}],
	"bufferViews":[{
		"buffer":0,
		"byteOffset":0,
		"byteLength":4980,
		"target":34963
	},
	{
		"buffer":0,
		"byteOffset":4980,
		"byteLength":32064,
		"target":34962,
		"byteStride":32
	},
	{
		"buffer":1,
		"byteOffset":0,
		"byteLength":984,
		"target":34963
	},
	{
		"buffer":1,
		"byteOffset":984,
		"byteLength":7488,
		"target":34962,
		"byteStride":32
	},
	{
		"buffer":2,
		"byteOffset":0,
		"byteLength":2100,
		"target":34963
	},
	{
		"buffer":2,
		"byteOffset":2100,
		"byteLength":13856,
		"target":34962,
		"byteStride":32
	}],
	"buffers":[{
		"uri":"data:application/octet-stream;base64,",
		"byteLength":37044
	},
	{
		"uri":"data:application/octet-stream;base64,",
		"byteLength":8472
	},
	{
		"uri":"data:application/octet-stream;base64,",
		"byteLength":15956
	}],
	"materials":[{
		"pbrMetallicRoughness":{
			"baseColorFactor":[0.52,
			0.04159999999999998,
			0.04159999999999998,
			0.5],
			"metallicFactor":0.0,
			"roughnessFactor":0.5
		},
		"emissiveFactor":[0.0,
		0.0,
		0.0],
		"alphaMode":"BLEND",
		"doubleSided":true,
		"name":"材质"
	},
	{
		"pbrMetallicRoughness":{
			"baseColorFactor":[0.74,
			0.6882,
			0.7097833333333335,
			1.0],
			"metallicFactor":0.64,
			"roughnessFactor":0.0
		},
		"emissiveFactor":[0.0,
		0.0,
		0.0],
		"alphaMode":"OPAQUE",
		"doubleSided":true,
		"name":"材质.1"
	}]
}