{
	"asset":{
		"version":"2.0",
		"generator":"Created using the official Cinema 4D glTF Exporter 1.000x284978"
	},
	"scenes":[{
		"nodes":[0]
	}],
	"nodes":[{
		"name":"bool",
		"children":[1,
		2]
	},
	{
		"name":"g",
		"mesh":0
	},
	{
		"name":"text",
		"translation":[-60.755165100097659,
		54.46694564819336,
		40.16933822631836],
		"rotation":[0.0,
		0.0,
		0.0,
		-1.0],
		"scale":[1.0,
		1.0,
		1.0],
		"children":[3,
		6]
	},
	{
		"name":"1",
		"children":[4]
	},
	{
		"name":"黄",
		"children":[5]
	},
	{
		"name":"黄",
		"mesh":1
	},
	{
		"name":"2",
		"translation":[0.0,
		-190.6269989013672,
		0.0],
		"rotation":[0.0,
		0.0,
		0.0,
		-1.0],
		"scale":[1.0,
		1.0,
		1.0],
		"children":[7]
	},
	{
		"name":"忠",
		"children":[8]
	},
	{
		"name":"忠",
		"mesh":2
	}],
	"meshes":[{
		"name":"g",
		"primitives":[{
			"attributes":{
				"NORMAL":2,
				"POSITION":1,
				"TEXCOORD_0":3
			},
			"indices":0,
			"material":0
		}]
	},
	{
		"name":"黄",
		"primitives":[{
			"attributes":{
				"NORMAL":6,
				"POSITION":5,
				"TEXCOORD_0":7
			},
			"indices":4,
			"material":1
		}]
	},
	{
		"name":"忠",
		"primitives":[{
			"attributes":{
				"NORMAL":10,
				"POSITION":9,
				"TEXCOORD_0":11
			},
			"indices":8,
			"material":1
		}]
	}],
	"accessors":[{
		"bufferView":0,
		"type":"SCALAR",
		"componentType":5123,
		"count":2445,
		"byteOffset":0,
		"min":[0],
		"max":[1003]
	},
	{
		"bufferView":1,
		"type":"VEC3",
		"componentType":5126,
		"count":1004,
		"byteOffset":0,
		"min":[-100.0,
		-200.0,
		-40.0],
		"max":[100.0,
		200.0,
		40.0]
	},
	{
		"bufferView":1,
		"type":"VEC3",
		"componentType":5126,
		"count":1004,
		"byteOffset":12,
		"min":[-1.0,
		-1.0,
		-1.0],
		"max":[1.0,
		1.0,
		1.0]
	},
	{
		"bufferView":1,
		"type":"VEC2",
		"componentType":5126,
		"count":1004,
		"byteOffset":24,
		"min":[-0.20000000298023225,
		-0.09999999403953552],
		"max":[1.2000000476837159,
		1.0999999046325684]
	},
	{
		"bufferView":2,
		"type":"SCALAR",
		"componentType":5123,
		"count":1017,
		"byteOffset":0,
		"min":[0],
		"max":[452]
	},
	{
		"bufferView":3,
		"type":"VEC3",
		"componentType":5126,
		"count":453,
		"byteOffset":0,
		"min":[-1.9049999713897706,
		-16.763999938964845,
		-20.0],
		"max":[123.19000244140625,
		97.53600311279297,
		-0.1693398356437683]
	},
	{
		"bufferView":3,
		"type":"VEC3",
		"componentType":5126,
		"count":453,
		"byteOffset":12,
		"min":[-0.9994217753410339,
		-1.0,
		-1.0],
		"max":[0.9999791979789734,
		1.0,
		1.0]
	},
	{
		"bufferView":3,
		"type":"VEC2",
		"componentType":5126,
		"count":453,
		"byteOffset":24,
		"min":[0.0,
		0.0],
		"max":[1.0,
		1.0]
	},
	{
		"bufferView":4,
		"type":"SCALAR",
		"componentType":5123,
		"count":702,
		"byteOffset":0,
		"min":[0],
		"max":[321]
	},
	{
		"bufferView":5,
		"type":"VEC3",
		"componentType":5126,
		"count":322,
		"byteOffset":0,
		"min":[-2.2860000133514406,
		-16.763999938964845,
		-20.0],
		"max":[115.56999969482422,
		97.53600311279297,
		-0.1693398356437683]
	},
	{
		"bufferView":5,
		"type":"VEC3",
		"componentType":5126,
		"count":322,
		"byteOffset":12,
		"min":[-0.9999852180480957,
		-1.0,
		-2.352792805027093e-8],
		"max":[0.9997771978378296,
		1.0,
		1.0]
	},
	{
		"bufferView":5,
		"type":"VEC2",
		"componentType":5126,
		"count":322,
		"byteOffset":24,
		"min":[0.0,
		0.0],
		"max":[1.0,
		1.0]
	}],
	"bufferViews":[{
		"buffer":0,
		"byteOffset":0,
		"byteLength":4890,
		"target":34963
	},
	{
		"buffer":0,
		"byteOffset":4892,
		"byteLength":32128,
		"target":34962,
		"byteStride":32
	},
	{
		"buffer":1,
		"byteOffset":0,
		"byteLength":2034,
		"target":34963
	},
	{
		"buffer":1,
		"byteOffset":2036,
		"byteLength":14496,
		"target":34962,
		"byteStride":32
	},
	{
		"buffer":2,
		"byteOffset":0,
		"byteLength":1404,
		"target":34963
	},
	{
		"buffer":2,
		"byteOffset":1404,
		"byteLength":10304,
		"target":34962,
		"byteStride":32
	}],
	"buffers":[{
		"uri":"data:application/octet-stream;base64,",
		"byteLength":37020
	},
	{
		"uri":"data:application/octet-stream;base64,",
		"byteLength":16532
	},
	{
		"uri":"data:application/octet-stream;base64,",
		"byteLength":11708
	}],
	"materials":[{
		"pbrMetallicRoughness":{
			"baseColorFactor":[0.4,
			0.3866666666666668,
			0.0,
			0.5],
			"metallicFactor":0.0,
			"roughnessFactor":0.5
		},
		"emissiveFactor":[0.0,
		0.0,
		0.0],
		"alphaMode":"BLEND",
		"doubleSided":true,
		"name":"材质"
	},
	{
		"pbrMetallicRoughness":{
			"baseColorFactor":[0.74,
			0.6882,
			0.7097833333333335,
			1.0],
			"metallicFactor":0.64,
			"roughnessFactor":0.0
		},
		"emissiveFactor":[0.0,
		0.0,
		0.0],
		"alphaMode":"OPAQUE",
		"doubleSided":true,
		"name":"材质.1"
	}]
}