{
	"asset":{
		"version":"2.0",
		"generator":"Created using the official Cinema 4D glTF Exporter 1.000x284978"
	},
	"scenes":[{
		"nodes":[0]
	}],
	"nodes":[{
		"name":"bool",
		"children":[1,
		2]
	},
	{
		"name":"g",
		"mesh":0
	},
	{
		"name":"text",
		"translation":[-60.755165100097659,
		54.46694564819336,
		40.16933822631836],
		"rotation":[0.0,
		0.0,
		0.0,
		-1.0],
		"scale":[1.0,
		1.0,
		1.0],
		"children":[3,
		6]
	},
	{
		"name":"1",
		"children":[4]
	},
	{
		"name":"马",
		"children":[5]
	},
	{
		"name":"马",
		"mesh":1
	},
	{
		"name":"2",
		"translation":[0.0,
		-190.6269989013672,
		0.0],
		"rotation":[0.0,
		0.0,
		0.0,
		-1.0],
		"scale":[1.0,
		1.0,
		1.0],
		"children":[7]
	},
	{
		"name":"超",
		"children":[8]
	},
	{
		"name":"超",
		"mesh":2
	}],
	"meshes":[{
		"name":"g",
		"primitives":[{
			"attributes":{
				"NORMAL":2,
				"POSITION":1,
				"TEXCOORD_0":3
			},
			"indices":0,
			"material":0
		}]
	},
	{
		"name":"马",
		"primitives":[{
			"attributes":{
				"NORMAL":6,
				"POSITION":5,
				"TEXCOORD_0":7
			},
			"indices":4,
			"material":1
		}]
	},
	{
		"name":"超",
		"primitives":[{
			"attributes":{
				"NORMAL":10,
				"POSITION":9,
				"TEXCOORD_0":11
			},
			"indices":8,
			"material":1
		}]
	}],
	"accessors":[{
		"bufferView":0,
		"type":"SCALAR",
		"componentType":5123,
		"count":2601,
		"byteOffset":0,
		"min":[0],
		"max":[1049]
	},
	{
		"bufferView":1,
		"type":"VEC3",
		"componentType":5126,
		"count":1050,
		"byteOffset":0,
		"min":[-100.0,
		-200.0,
		-40.0],
		"max":[100.0,
		200.0,
		40.0]
	},
	{
		"bufferView":1,
		"type":"VEC3",
		"componentType":5126,
		"count":1050,
		"byteOffset":12,
		"min":[-1.0,
		-1.0,
		-1.0],
		"max":[1.0,
		1.0,
		1.0]
	},
	{
		"bufferView":1,
		"type":"VEC2",
		"componentType":5126,
		"count":1050,
		"byteOffset":24,
		"min":[-0.20000000298023225,
		-0.09999999403953552],
		"max":[1.2000000476837159,
		1.0999999046325684]
	},
	{
		"bufferView":2,
		"type":"SCALAR",
		"componentType":5123,
		"count":897,
		"byteOffset":0,
		"min":[0],
		"max":[350]
	},
	{
		"bufferView":3,
		"type":"VEC3",
		"componentType":5126,
		"count":351,
		"byteOffset":0,
		"min":[5.079999923706055,
		-16.763999938964845,
		-20.0],
		"max":[117.80892944335938,
		94.36100006103516,
		-0.1693398356437683]
	},
	{
		"bufferView":3,
		"type":"VEC3",
		"componentType":5126,
		"count":351,
		"byteOffset":12,
		"min":[-0.9999793767929077,
		-1.0,
		-1.0],
		"max":[0.9999997019767761,
		1.0,
		1.0]
	},
	{
		"bufferView":3,
		"type":"VEC2",
		"componentType":5126,
		"count":351,
		"byteOffset":24,
		"min":[0.0,
		0.0],
		"max":[1.0,
		1.0]
	},
	{
		"bufferView":4,
		"type":"SCALAR",
		"componentType":5123,
		"count":1302,
		"byteOffset":0,
		"min":[0],
		"max":[549]
	},
	{
		"bufferView":5,
		"type":"VEC3",
		"componentType":5126,
		"count":550,
		"byteOffset":0,
		"min":[-2.6670000553131105,
		-16.763999938964845,
		-20.0],
		"max":[120.56278991699219,
		97.53600311279297,
		-0.1693398356437683]
	},
	{
		"bufferView":5,
		"type":"VEC3",
		"componentType":5126,
		"count":550,
		"byteOffset":12,
		"min":[-0.9997996091842651,
		-1.0,
		-1.2914157743182387e-8],
		"max":[0.9998924732208252,
		1.0,
		1.0]
	},
	{
		"bufferView":5,
		"type":"VEC2",
		"componentType":5126,
		"count":550,
		"byteOffset":24,
		"min":[0.0,
		0.0],
		"max":[1.0,
		1.0]
	}],
	"bufferViews":[{
		"buffer":0,
		"byteOffset":0,
		"byteLength":5202,
		"target":34963
	},
	{
		"buffer":0,
		"byteOffset":5204,
		"byteLength":33600,
		"target":34962,
		"byteStride":32
	},
	{
		"buffer":1,
		"byteOffset":0,
		"byteLength":1794,
		"target":34963
	},
	{
		"buffer":1,
		"byteOffset":1796,
		"byteLength":11232,
		"target":34962,
		"byteStride":32
	},
	{
		"buffer":2,
		"byteOffset":0,
		"byteLength":2604,
		"target":34963
	},
	{
		"buffer":2,
		"byteOffset":2604,
		"byteLength":17600,
		"target":34962,
		"byteStride":32
	}],
	"buffers":[{
		"uri":"data:application/octet-stream;base64,",
		"byteLength":38804
	},
	{
		"uri":"data:application/octet-stream;base64,",
		"byteLength":13028
	},
	{
		"uri":"data:application/octet-stream;base64,",
		"byteLength":20204
	}],
	"materials":[{
		"pbrMetallicRoughness":{
			"baseColorFactor":[0.2585999999999999,
			0.023999999999999988,
			0.3,
			0.5],
			"metallicFactor":0.0,
			"roughnessFactor":0.5
		},
		"emissiveFactor":[0.0,
		0.0,
		0.0],
		"alphaMode":"BLEND",
		"doubleSided":true,
		"name":"材质"
	},
	{
		"pbrMetallicRoughness":{
			"baseColorFactor":[0.74,
			0.6882,
			0.7097833333333335,
			1.0],
			"metallicFactor":0.64,
			"roughnessFactor":0.0
		},
		"emissiveFactor":[0.0,
		0.0,
		0.0],
		"alphaMode":"OPAQUE",
		"doubleSided":true,
		"name":"材质.1"
	}]
}