{
	"asset":{
		"version":"2.0",
		"generator":"Created using the official Cinema 4D glTF Exporter 1.000x284978"
	},
	"scenes":[{
		"nodes":[0]
	}],
	"nodes":[{
		"name":"bool",
		"children":[1,
		2]
	},
	{
		"name":"g",
		"mesh":0
	},
	{
		"name":"text",
		"translation":[-60.755165100097659,
		54.46694564819336,
		40.16933822631836],
		"rotation":[0.0,
		0.0,
		0.0,
		-1.0],
		"scale":[1.0,
		1.0,
		1.0],
		"children":[3,
		6]
	},
	{
		"name":"1",
		"children":[4]
	},
	{
		"name":"张",
		"children":[5]
	},
	{
		"name":"张",
		"mesh":1
	},
	{
		"name":"2",
		"translation":[0.0,
		-190.6269989013672,
		0.0],
		"rotation":[0.0,
		0.0,
		0.0,
		-1.0],
		"scale":[1.0,
		1.0,
		1.0],
		"children":[7]
	},
	{
		"name":"飞",
		"children":[8]
	},
	{
		"name":"飞",
		"mesh":2
	}],
	"meshes":[{
		"name":"g",
		"primitives":[{
			"attributes":{
				"NORMAL":2,
				"POSITION":1,
				"TEXCOORD_0":3
			},
			"indices":0,
			"material":0
		}]
	},
	{
		"name":"张",
		"primitives":[{
			"attributes":{
				"NORMAL":6,
				"POSITION":5,
				"TEXCOORD_0":7
			},
			"indices":4,
			"material":1
		}]
	},
	{
		"name":"飞",
		"primitives":[{
			"attributes":{
				"NORMAL":10,
				"POSITION":9,
				"TEXCOORD_0":11
			},
			"indices":8,
			"material":1
		}]
	}],
	"accessors":[{
		"bufferView":0,
		"type":"SCALAR",
		"componentType":5123,
		"count":2406,
		"byteOffset":0,
		"min":[0],
		"max":[982]
	},
	{
		"bufferView":1,
		"type":"VEC3",
		"componentType":5126,
		"count":983,
		"byteOffset":0,
		"min":[-100.0,
		-200.0,
		-40.0],
		"max":[100.0,
		200.0,
		40.0]
	},
	{
		"bufferView":1,
		"type":"VEC3",
		"componentType":5126,
		"count":983,
		"byteOffset":12,
		"min":[-1.0,
		-1.0,
		-1.0],
		"max":[1.0,
		1.0,
		1.0]
	},
	{
		"bufferView":1,
		"type":"VEC2",
		"componentType":5126,
		"count":983,
		"byteOffset":24,
		"min":[-0.20000000298023225,
		-0.09999999403953552],
		"max":[1.2000000476837159,
		1.0999999046325684]
	},
	{
		"bufferView":2,
		"type":"SCALAR",
		"componentType":5123,
		"count":1080,
		"byteOffset":0,
		"min":[0],
		"max":[456]
	},
	{
		"bufferView":3,
		"type":"VEC3",
		"componentType":5126,
		"count":457,
		"byteOffset":0,
		"min":[4.317999839782715,
		-16.763999938964845,
		-20.0],
		"max":[123.57099914550781,
		96.13899993896485,
		-0.1693398356437683]
	},
	{
		"bufferView":3,
		"type":"VEC3",
		"componentType":5126,
		"count":457,
		"byteOffset":12,
		"min":[-0.9999730587005615,
		-1.0,
		-1.0],
		"max":[0.9999999403953552,
		1.0,
		1.0]
	},
	{
		"bufferView":3,
		"type":"VEC2",
		"componentType":5126,
		"count":457,
		"byteOffset":24,
		"min":[0.0,
		0.0],
		"max":[1.0,
		1.0]
	},
	{
		"bufferView":4,
		"type":"SCALAR",
		"componentType":5123,
		"count":510,
		"byteOffset":0,
		"min":[0],
		"max":[207]
	},
	{
		"bufferView":5,
		"type":"VEC3",
		"componentType":5126,
		"count":208,
		"byteOffset":0,
		"min":[16.636999130249025,
		-16.256000518798829,
		-20.0],
		"max":[122.68199920654297,
		93.5989990234375,
		-0.1693398356437683]
	},
	{
		"bufferView":5,
		"type":"VEC3",
		"componentType":5126,
		"count":208,
		"byteOffset":12,
		"min":[-0.9999231696128845,
		-1.0,
		-1.966969698230514e-8],
		"max":[0.9999973773956299,
		1.0,
		1.0]
	},
	{
		"bufferView":5,
		"type":"VEC2",
		"componentType":5126,
		"count":208,
		"byteOffset":24,
		"min":[0.0,
		0.0],
		"max":[1.0,
		1.0]
	}],
	"bufferViews":[{
		"buffer":0,
		"byteOffset":0,
		"byteLength":4812,
		"target":34963
	},
	{
		"buffer":0,
		"byteOffset":4812,
		"byteLength":31456,
		"target":34962,
		"byteStride":32
	},
	{
		"buffer":1,
		"byteOffset":0,
		"byteLength":2160,
		"target":34963
	},
	{
		"buffer":1,
		"byteOffset":2160,
		"byteLength":14624,
		"target":34962,
		"byteStride":32
	},
	{
		"buffer":2,
		"byteOffset":0,
		"byteLength":1020,
		"target":34963
	},
	{
		"buffer":2,
		"byteOffset":1020,
		"byteLength":6656,
		"target":34962,
		"byteStride":32
	}],
	"buffers":[{
		"uri":"data:application/octet-stream;base64,",
		"byteLength":36268
	},
	{
		"uri":"data:application/octet-stream;base64,",
		"byteLength":16784
	},
	{
		"uri":"data:application/octet-stream;base64,",
		"byteLength":7676
	}],
	"materials":[{
		"pbrMetallicRoughness":{
			"baseColorFactor":[0.027199999999999989,
			0.2357333333333333,
			0.34,
			0.5],
			"metallicFactor":0.0,
			"roughnessFactor":0.5
		},
		"emissiveFactor":[0.0,
		0.0,
		0.0],
		"alphaMode":"BLEND",
		"doubleSided":true,
		"name":"材质"
	},
	{
		"pbrMetallicRoughness":{
			"baseColorFactor":[0.74,
			0.6882,
			0.7097833333333335,
			1.0],
			"metallicFactor":0.64,
			"roughnessFactor":0.0
		},
		"emissiveFactor":[0.0,
		0.0,
		0.0],
		"alphaMode":"OPAQUE",
		"doubleSided":true,
		"name":"材质.1"
	}]
}