{
	"asset":{
		"version":"2.0",
		"generator":"Created using the official Cinema 4D glTF Exporter 1.000x284978"
	},
	"scenes":[{
		"nodes":[0]
	}],
	"nodes":[{
		"name":"bool",
		"children":[1,
		2]
	},
	{
		"name":"g",
		"mesh":0
	},
	{
		"name":"text",
		"translation":[-59.710113525390628,
		-37.64228820800781,
		40.16933822631836],
		"rotation":[0.0,
		0.0,
		0.0,
		-1.0],
		"scale":[1.0,
		1.0,
		1.0],
		"children":[3]
	},
	{
		"name":"1",
		"children":[4]
	},
	{
		"name":"卒",
		"children":[5]
	},
	{
		"name":"卒",
		"mesh":1
	}],
	"meshes":[{
		"name":"g",
		"primitives":[{
			"attributes":{
				"NORMAL":2,
				"POSITION":1,
				"TEXCOORD_0":3
			},
			"indices":0,
			"material":0
		}]
	},
	{
		"name":"卒",
		"primitives":[{
			"attributes":{
				"NORMAL":6,
				"POSITION":5,
				"TEXCOORD_0":7
			},
			"indices":4,
			"material":1
		}]
	}],
	"accessors":[{
		"bufferView":0,
		"type":"SCALAR",
		"componentType":5123,
		"count":1764,
		"byteOffset":0,
		"min":[0],
		"max":[599]
	},
	{
		"bufferView":1,
		"type":"VEC3",
		"componentType":5126,
		"count":600,
		"byteOffset":0,
		"min":[-100.0,
		-100.0,
		-40.0],
		"max":[100.0,
		100.0,
		40.0]
	},
	{
		"bufferView":1,
		"type":"VEC3",
		"componentType":5126,
		"count":600,
		"byteOffset":12,
		"min":[-1.0,
		-1.0,
		-1.0],
		"max":[1.0,
		1.0,
		1.0]
	},
	{
		"bufferView":1,
		"type":"VEC2",
		"componentType":5126,
		"count":600,
		"byteOffset":24,
		"min":[-0.19731076061725617,
		-0.19909876585006715],
		"max":[1.2000000476837159,
		1.197932481765747]
	},
	{
		"bufferView":2,
		"type":"SCALAR",
		"componentType":5123,
		"count":552,
		"byteOffset":0,
		"min":[0],
		"max":[275]
	},
	{
		"bufferView":3,
		"type":"VEC3",
		"componentType":5126,
		"count":276,
		"byteOffset":0,
		"min":[5.334000110626221,
		-16.763999938964845,
		-20.0],
		"max":[118.9990005493164,
		97.53600311279297,
		0.0]
	},
	{
		"bufferView":3,
		"type":"VEC3",
		"componentType":5126,
		"count":276,
		"byteOffset":12,
		"min":[-0.9908302426338196,
		-1.0,
		-1.0],
		"max":[0.99083012342453,
		1.0,
		1.0]
	},
	{
		"bufferView":3,
		"type":"VEC2",
		"componentType":5126,
		"count":276,
		"byteOffset":24,
		"min":[0.0,
		0.0],
		"max":[1.0,
		1.0]
	}],
	"bufferViews":[{
		"buffer":0,
		"byteOffset":0,
		"byteLength":3528,
		"target":34963
	},
	{
		"buffer":0,
		"byteOffset":3528,
		"byteLength":19200,
		"target":34962,
		"byteStride":32
	},
	{
		"buffer":1,
		"byteOffset":0,
		"byteLength":1104,
		"target":34963
	},
	{
		"buffer":1,
		"byteOffset":1104,
		"byteLength":8832,
		"target":34962,
		"byteStride":32
	}],
	"buffers":[{
		"uri":"data:application/octet-stream;base64,",
		"byteLength":22728
	},
	{
		"uri":"data:application/octet-stream;base64,",
		"byteLength":9936
	}],
	"materials":[{
		"pbrMetallicRoughness":{
			"baseColorFactor":[0.13146666666666685,
			0.027199999999999989,
			0.34,
			0.5],
			"metallicFactor":0.0,
			"roughnessFactor":0.5
		},
		"emissiveFactor":[0.0,
		0.0,
		0.0],
		"alphaMode":"BLEND",
		"doubleSided":true,
		"name":"材质"
	},
	{
		"pbrMetallicRoughness":{
			"baseColorFactor":[0.74,
			0.6882,
			0.7097833333333335,
			1.0],
			"metallicFactor":0.64,
			"roughnessFactor":0.0
		},
		"emissiveFactor":[0.0,
		0.0,
		0.0],
		"alphaMode":"OPAQUE",
		"doubleSided":true,
		"name":"材质.1"
	}]
}